<svg width="182" height="49" viewBox="0 0 182 49" fill="none" xmlns="http://www.w3.org/2000/svg">
<path d="M0 0V48.34H21.8858V0H0ZM26.2631 0V48.34H39.3945V0H26.2631ZM43.7718 0V48.34H48.149V0H43.7718ZM59.0918 0V48.34H80.9776V0H59.0918ZM85.3549 0V48.34H89.7319V0H85.3549ZM94.1092 0V48.34H98.4861V0H94.1092ZM102.864 0V48.34H107.241V0H102.864ZM115.995 0V48.34H133.504V0H115.995ZM142.258 0V48.34H155.389V0H142.258ZM164.144 0V48.34H168.521V0H164.144ZM172.898 0V48.34H181.653V0H172.898Z" fill="black"/>
</svg>
