<svg width="15" height="22" viewBox="0 0 15 22" fill="none" xmlns="http://www.w3.org/2000/svg">
<path d="M5.15245 0.920044C4.73679 0.920044 4.36446 1.17717 4.21726 1.5659L3.98767 2.17217C3.49548 2.123 3.04201 2.07391 2.67492 2.03269C2.40051 2.00188 2.17494 1.97553 2.01824 1.95692L1.8375 1.93522L1.77611 1.92772C1.22802 1.85986 0.727901 2.24906 0.660028 2.79715C0.592154 3.34525 0.981453 3.84459 1.52955 3.91246L1.59634 3.92063L1.78232 3.94295C1.94267 3.962 2.17254 3.98885 2.45176 4.0202C3.00972 4.08285 3.76702 4.16373 4.56156 4.23624C5.63334 4.33406 6.80817 4.42004 7.65245 4.42004C8.49673 4.42004 9.67155 4.33406 10.7433 4.23624C11.5379 4.16373 12.2952 4.08285 12.8531 4.0202C13.1324 3.98885 13.3622 3.962 13.5226 3.94295L13.7086 3.92063L13.7752 3.91248C14.3233 3.84461 14.7127 3.34525 14.6449 2.79715C14.577 2.24906 14.0777 1.85976 13.5296 1.92762L13.4674 1.93522L13.2867 1.95692C13.13 1.97553 12.9044 2.00188 12.63 2.03269C12.2629 2.07391 11.8094 2.123 11.3172 2.17217L11.0876 1.5659C10.9404 1.17717 10.5681 0.920044 10.1524 0.920044H5.15245Z" fill="#FF6161"/>
<path d="M6.65245 10.92C6.65245 10.3678 6.20473 9.92004 5.65245 9.92004C5.10016 9.92004 4.65245 10.3678 4.65245 10.92V15.92C4.65245 16.4723 5.10016 16.92 5.65245 16.92C6.20473 16.92 6.65245 16.4723 6.65245 15.92V10.92Z" fill="#FF6161"/>
<path d="M9.65245 9.92004C10.2047 9.92004 10.6524 10.3678 10.6524 10.92V15.92C10.6524 16.4723 10.2047 16.92 9.65245 16.92C9.10016 16.92 8.65245 16.4723 8.65245 15.92V10.92C8.65245 10.3678 9.10016 9.92004 9.65245 9.92004Z" fill="#FF6161"/>
<path fill-rule="evenodd" clip-rule="evenodd" d="M14.5621 7.2206C14.6527 5.95183 13.5589 4.93468 12.3157 5.07834C11.0437 5.22535 9.08079 5.42004 7.65245 5.42004C6.22411 5.42004 4.26119 5.22535 2.98915 5.07834C1.74603 4.93468 0.65217 5.95183 0.742797 7.2206L1.59953 19.2149C1.66447 20.1241 2.34171 20.8928 3.27109 21.0326C4.2677 21.1825 6.09639 21.4218 7.6536 21.42C9.19168 21.4183 11.0278 21.1799 12.0288 21.0314C12.9598 20.8933 13.6404 20.124 13.7056 19.2121L14.5621 7.2206ZM12.5453 7.06512C12.5488 7.06472 12.5515 7.06495 12.5515 7.06495L12.5541 7.06556C12.5563 7.06633 12.5598 7.06815 12.5633 7.07142C12.5656 7.07358 12.5673 7.07622 12.5673 7.07622L12.5672 7.07811L11.7116 19.0566C10.7209 19.203 9.02298 19.4185 7.65129 19.42C6.26474 19.4216 4.57732 19.2059 3.59346 19.0586L2.73771 7.07811L2.73764 7.07622C2.73764 7.07622 2.73934 7.07358 2.74162 7.07142C2.74507 7.06815 2.74856 7.06633 2.75078 7.06556L2.75342 7.06495C2.75342 7.06495 2.75608 7.06472 2.75955 7.06512C4.03383 7.21238 6.09789 7.42004 7.65245 7.42004C9.207 7.42004 11.2711 7.21238 12.5453 7.06512Z" fill="#FF6161"/>
</svg>
